<mxfile host="app.diagrams.net" modified="2024-03-01T15:16:54.591Z" agent="Mozilla/5.0 (Windows NT 10.0; Win64; x64) AppleWebKit/537.36 (KHTML, like Gecko) Chrome/122.0.0.0 Safari/537.36" etag="pXenmrQQ6JRGdt1bJ6IN" version="24.0.0" type="device">
  <diagram name="Page-1" id="j7vn6El_NBqcxHD6ZNiW">
    <mxGraphModel dx="794" dy="454" grid="1" gridSize="10" guides="1" tooltips="1" connect="1" arrows="1" fold="1" page="1" pageScale="1" pageWidth="850" pageHeight="1100" math="0" shadow="0">
      <root>
        <mxCell id="0" />
        <mxCell id="1" parent="0" />
        <mxCell id="a38A9a1VZRMnbz76a4Cf-28" value="" style="endArrow=none;html=1;rounded=0;entryX=0.078;entryY=0.267;entryDx=0;entryDy=0;entryPerimeter=0;" parent="1" target="a38A9a1VZRMnbz76a4Cf-46" edge="1">
          <mxGeometry width="50" height="50" relative="1" as="geometry">
            <mxPoint x="100" y="140" as="sourcePoint" />
            <mxPoint x="210" y="200" as="targetPoint" />
          </mxGeometry>
        </mxCell>
        <mxCell id="a38A9a1VZRMnbz76a4Cf-43" value="Doctors" style="shape=umlActor;verticalLabelPosition=bottom;verticalAlign=top;html=1;outlineConnect=0;" parent="1" vertex="1">
          <mxGeometry x="50" y="360" width="30" height="60" as="geometry" />
        </mxCell>
        <mxCell id="a38A9a1VZRMnbz76a4Cf-45" value="View Medical History" style="ellipse;whiteSpace=wrap;html=1;strokeWidth=1;" parent="1" vertex="1">
          <mxGeometry x="200" y="60" width="120" height="80" as="geometry" />
        </mxCell>
        <mxCell id="a38A9a1VZRMnbz76a4Cf-46" value="Book Appoitment" style="ellipse;whiteSpace=wrap;html=1;strokeWidth=1;" parent="1" vertex="1">
          <mxGeometry x="200" y="160" width="120" height="80" as="geometry" />
        </mxCell>
        <mxCell id="a38A9a1VZRMnbz76a4Cf-47" value="Pay Bill" style="ellipse;whiteSpace=wrap;html=1;strokeWidth=1;" parent="1" vertex="1">
          <mxGeometry x="200" y="260" width="120" height="80" as="geometry" />
        </mxCell>
        <mxCell id="a38A9a1VZRMnbz76a4Cf-48" value="Prescribe Medicine" style="ellipse;whiteSpace=wrap;html=1;strokeWidth=1;" parent="1" vertex="1">
          <mxGeometry x="200" y="380" width="120" height="80" as="geometry" />
        </mxCell>
        <mxCell id="a38A9a1VZRMnbz76a4Cf-49" value="Perform Operations" style="ellipse;whiteSpace=wrap;html=1;strokeWidth=1;" parent="1" vertex="1">
          <mxGeometry x="200" y="480" width="120" height="80" as="geometry" />
        </mxCell>
        <mxCell id="a38A9a1VZRMnbz76a4Cf-52" value="Create Bed Allotement" style="ellipse;whiteSpace=wrap;html=1;strokeWidth=1;" parent="1" vertex="1">
          <mxGeometry x="200" y="600" width="120" height="80" as="geometry" />
        </mxCell>
        <mxCell id="Ga0ippnpY49jdeoxHH3r-3" value="Nurse" style="shape=umlActor;verticalLabelPosition=bottom;verticalAlign=top;html=1;outlineConnect=0;" parent="1" vertex="1">
          <mxGeometry x="50" y="600" width="30" height="60" as="geometry" />
        </mxCell>
        <mxCell id="Ga0ippnpY49jdeoxHH3r-11" value="Patient" style="shape=umlActor;verticalLabelPosition=bottom;verticalAlign=top;html=1;outlineConnect=0;" parent="1" vertex="1">
          <mxGeometry x="50" y="90" width="30" height="60" as="geometry" />
        </mxCell>
        <mxCell id="Ga0ippnpY49jdeoxHH3r-14" value="" style="endArrow=none;html=1;rounded=0;entryX=0;entryY=0.5;entryDx=0;entryDy=0;" parent="1" target="a38A9a1VZRMnbz76a4Cf-45" edge="1">
          <mxGeometry width="50" height="50" relative="1" as="geometry">
            <mxPoint x="100" y="100" as="sourcePoint" />
            <mxPoint x="210" y="150" as="targetPoint" />
          </mxGeometry>
        </mxCell>
        <mxCell id="Ga0ippnpY49jdeoxHH3r-20" value="Receptionist" style="shape=umlActor;verticalLabelPosition=bottom;verticalAlign=top;html=1;outlineConnect=0;" parent="1" vertex="1">
          <mxGeometry x="50" y="810" width="30" height="60" as="geometry" />
        </mxCell>
        <mxCell id="Ga0ippnpY49jdeoxHH3r-25" value="" style="endArrow=none;html=1;rounded=0;entryX=0;entryY=0.5;entryDx=0;entryDy=0;" parent="1" target="a38A9a1VZRMnbz76a4Cf-48" edge="1">
          <mxGeometry width="50" height="50" relative="1" as="geometry">
            <mxPoint x="100" y="380" as="sourcePoint" />
            <mxPoint x="140" y="440" as="targetPoint" />
          </mxGeometry>
        </mxCell>
        <mxCell id="Ga0ippnpY49jdeoxHH3r-41" value="" style="endArrow=none;html=1;rounded=0;" parent="1" edge="1">
          <mxGeometry width="50" height="50" relative="1" as="geometry">
            <mxPoint x="90" y="640" as="sourcePoint" />
            <mxPoint x="430" y="530" as="targetPoint" />
          </mxGeometry>
        </mxCell>
        <mxCell id="Ga0ippnpY49jdeoxHH3r-43" value="" style="endArrow=none;html=1;rounded=0;exitX=0;exitY=0;exitDx=0;exitDy=0;" parent="1" source="a38A9a1VZRMnbz76a4Cf-47" edge="1">
          <mxGeometry width="50" height="50" relative="1" as="geometry">
            <mxPoint x="210" y="570" as="sourcePoint" />
            <mxPoint x="90" y="180" as="targetPoint" />
          </mxGeometry>
        </mxCell>
        <mxCell id="Ga0ippnpY49jdeoxHH3r-48" value="" style="endArrow=none;html=1;rounded=0;entryX=0.061;entryY=0.25;entryDx=0;entryDy=0;entryPerimeter=0;" parent="1" target="a38A9a1VZRMnbz76a4Cf-49" edge="1">
          <mxGeometry width="50" height="50" relative="1" as="geometry">
            <mxPoint x="100" y="420" as="sourcePoint" />
            <mxPoint x="170" y="500" as="targetPoint" />
          </mxGeometry>
        </mxCell>
        <mxCell id="Ga0ippnpY49jdeoxHH3r-51" value="Generate Bill" style="ellipse;whiteSpace=wrap;html=1;strokeWidth=1;" parent="1" vertex="1">
          <mxGeometry x="425" y="600" width="120" height="80" as="geometry" />
        </mxCell>
        <mxCell id="Ga0ippnpY49jdeoxHH3r-52" value="Request Lab Test" style="ellipse;whiteSpace=wrap;html=1;strokeWidth=1;" parent="1" vertex="1">
          <mxGeometry x="425" y="480" width="120" height="80" as="geometry" />
        </mxCell>
        <mxCell id="Ga0ippnpY49jdeoxHH3r-55" value="" style="endArrow=none;html=1;rounded=0;entryX=0.5;entryY=1;entryDx=0;entryDy=0;" parent="1" target="Ga0ippnpY49jdeoxHH3r-51" edge="1">
          <mxGeometry width="50" height="50" relative="1" as="geometry">
            <mxPoint x="350" y="800" as="sourcePoint" />
            <mxPoint x="230" y="820" as="targetPoint" />
          </mxGeometry>
        </mxCell>
        <mxCell id="Ga0ippnpY49jdeoxHH3r-56" value="" style="endArrow=none;html=1;rounded=0;" parent="1" edge="1">
          <mxGeometry width="50" height="50" relative="1" as="geometry">
            <mxPoint x="100" y="610" as="sourcePoint" />
            <mxPoint x="200" y="520" as="targetPoint" />
          </mxGeometry>
        </mxCell>
        <mxCell id="Ga0ippnpY49jdeoxHH3r-57" value="Hospital Employee" style="shape=umlActor;verticalLabelPosition=bottom;verticalAlign=top;html=1;outlineConnect=0;" parent="1" vertex="1">
          <mxGeometry x="150" y="740" width="30" height="60" as="geometry" />
        </mxCell>
        <mxCell id="Ga0ippnpY49jdeoxHH3r-58" value="" style="endArrow=none;html=1;rounded=0;" parent="1" edge="1">
          <mxGeometry width="50" height="50" relative="1" as="geometry">
            <mxPoint x="110" y="850" as="sourcePoint" />
            <mxPoint x="350" y="800" as="targetPoint" />
          </mxGeometry>
        </mxCell>
        <mxCell id="Ga0ippnpY49jdeoxHH3r-59" value="" style="endArrow=block;endSize=16;endFill=0;html=1;rounded=0;" parent="1" edge="1">
          <mxGeometry width="160" relative="1" as="geometry">
            <mxPoint x="20" y="670" as="sourcePoint" />
            <mxPoint x="130" y="770" as="targetPoint" />
          </mxGeometry>
        </mxCell>
        <mxCell id="Ga0ippnpY49jdeoxHH3r-60" value="" style="swimlane;startSize=0;" parent="1" vertex="1">
          <mxGeometry x="130" width="490" height="690" as="geometry" />
        </mxCell>
        <mxCell id="Ga0ippnpY49jdeoxHH3r-63" value="Hospital System" style="text;align=center;fontStyle=1;verticalAlign=middle;spacingLeft=3;spacingRight=3;strokeColor=none;rotatable=0;points=[[0,0.5],[1,0.5]];portConstraint=eastwest;html=1;fontSize=15;" parent="Ga0ippnpY49jdeoxHH3r-60" vertex="1">
          <mxGeometry x="190" y="10" width="80" height="26" as="geometry" />
        </mxCell>
        <mxCell id="Ga0ippnpY49jdeoxHH3r-65" value="&amp;lt;&amp;lt;include&amp;gt;&amp;gt;" style="endArrow=open;dashed=1;html=1;endFill=0;rounded=0;" parent="Ga0ippnpY49jdeoxHH3r-60" edge="1">
          <mxGeometry width="50" height="50" relative="1" as="geometry">
            <mxPoint x="190" y="510" as="sourcePoint" />
            <mxPoint x="300" y="510" as="targetPoint" />
          </mxGeometry>
        </mxCell>
        <mxCell id="Ga0ippnpY49jdeoxHH3r-66" value="&lt;div&gt;&amp;lt;&amp;lt;extend&amp;gt;&amp;gt;&lt;/div&gt;" style="endArrow=open;dashed=1;html=1;endFill=0;rounded=0;" parent="Ga0ippnpY49jdeoxHH3r-60" edge="1">
          <mxGeometry x="0.0909" width="50" height="50" relative="1" as="geometry">
            <mxPoint x="290" y="640" as="sourcePoint" />
            <mxPoint x="190" y="640" as="targetPoint" />
            <Array as="points">
              <mxPoint x="250" y="640" />
            </Array>
            <mxPoint as="offset" />
          </mxGeometry>
        </mxCell>
        <mxCell id="Ga0ippnpY49jdeoxHH3r-78" value="Manage Appoitment" style="ellipse;whiteSpace=wrap;html=1;strokeWidth=1;" parent="Ga0ippnpY49jdeoxHH3r-60" vertex="1">
          <mxGeometry x="290" y="160" width="120" height="80" as="geometry" />
        </mxCell>
        <mxCell id="Ga0ippnpY49jdeoxHH3r-68" value="" style="endArrow=none;html=1;rounded=0;" parent="1" edge="1">
          <mxGeometry width="50" height="50" relative="1" as="geometry">
            <mxPoint x="20" y="670" as="sourcePoint" />
            <mxPoint x="60" y="450" as="targetPoint" />
          </mxGeometry>
        </mxCell>
        <mxCell id="Ga0ippnpY49jdeoxHH3r-69" value="" style="endArrow=none;html=1;rounded=0;entryX=0.067;entryY=0.758;entryDx=0;entryDy=0;entryPerimeter=0;" parent="1" target="a38A9a1VZRMnbz76a4Cf-52" edge="1">
          <mxGeometry width="50" height="50" relative="1" as="geometry">
            <mxPoint x="60" y="790" as="sourcePoint" />
            <mxPoint x="110" y="730" as="targetPoint" />
          </mxGeometry>
        </mxCell>
        <mxCell id="Ga0ippnpY49jdeoxHH3r-70" value="" style="endArrow=none;html=1;rounded=0;" parent="1" edge="1">
          <mxGeometry width="50" height="50" relative="1" as="geometry">
            <mxPoint x="80" y="90" as="sourcePoint" />
            <mxPoint x="100" y="40" as="targetPoint" />
          </mxGeometry>
        </mxCell>
        <mxCell id="Ga0ippnpY49jdeoxHH3r-74" value="" style="endArrow=none;html=1;rounded=0;" parent="1" edge="1">
          <mxGeometry width="50" height="50" relative="1" as="geometry">
            <mxPoint x="100" y="40" as="sourcePoint" />
            <mxPoint x="560" y="40" as="targetPoint" />
          </mxGeometry>
        </mxCell>
        <mxCell id="Ga0ippnpY49jdeoxHH3r-80" value="" style="endArrow=none;html=1;rounded=0;" parent="1" edge="1">
          <mxGeometry width="50" height="50" relative="1" as="geometry">
            <mxPoint x="560" y="200" as="sourcePoint" />
            <mxPoint x="560" y="40" as="targetPoint" />
          </mxGeometry>
        </mxCell>
        <mxCell id="Ga0ippnpY49jdeoxHH3r-81" value="" style="endArrow=none;html=1;rounded=0;" parent="1" edge="1">
          <mxGeometry width="50" height="50" relative="1" as="geometry">
            <mxPoint x="560" y="370" as="sourcePoint" />
            <mxPoint x="560" y="200" as="targetPoint" />
          </mxGeometry>
        </mxCell>
        <mxCell id="Ga0ippnpY49jdeoxHH3r-82" value="" style="endArrow=none;html=1;rounded=0;exitX=0.5;exitY=0;exitDx=0;exitDy=0;" parent="1" source="Ga0ippnpY49jdeoxHH3r-52" edge="1">
          <mxGeometry width="50" height="50" relative="1" as="geometry">
            <mxPoint x="570" y="440" as="sourcePoint" />
            <mxPoint x="560" y="370" as="targetPoint" />
          </mxGeometry>
        </mxCell>
        <mxCell id="Ga0ippnpY49jdeoxHH3r-83" value="" style="endArrow=block;endSize=16;endFill=0;html=1;rounded=0;exitX=1;exitY=0.5;exitDx=0;exitDy=0;entryX=0;entryY=0.5;entryDx=0;entryDy=0;" parent="1" source="a38A9a1VZRMnbz76a4Cf-46" target="Ga0ippnpY49jdeoxHH3r-78" edge="1">
          <mxGeometry width="160" relative="1" as="geometry">
            <mxPoint x="380" y="210" as="sourcePoint" />
            <mxPoint x="380" y="150" as="targetPoint" />
          </mxGeometry>
        </mxCell>
        <mxCell id="1dN47T65tpsrEHC4KLqs-1" value="" style="endArrow=block;endSize=16;endFill=0;html=1;rounded=0;" edge="1" parent="1">
          <mxGeometry width="160" relative="1" as="geometry">
            <mxPoint x="80" y="690" as="sourcePoint" />
            <mxPoint x="140" y="740" as="targetPoint" />
          </mxGeometry>
        </mxCell>
        <mxCell id="1dN47T65tpsrEHC4KLqs-2" value="" style="endArrow=block;endSize=16;endFill=0;html=1;rounded=0;" edge="1" parent="1">
          <mxGeometry width="160" relative="1" as="geometry">
            <mxPoint x="90" y="810" as="sourcePoint" />
            <mxPoint x="140" y="780" as="targetPoint" />
          </mxGeometry>
        </mxCell>
      </root>
    </mxGraphModel>
  </diagram>
</mxfile>
